<svg width="501" height="500" viewBox="0 0 501 500" fill="none" xmlns="http://www.w3.org/2000/svg">
<rect x="0.5" width="500" height="500" rx="16" fill="#FFFEFE"/>
<path d="M86.5 235.707C86.5 233.498 88.2909 231.707 90.5 231.707H218.098V363.305H90.5C88.2909 363.305 86.5 361.514 86.5 359.305V235.707Z" fill="#424242"/>
<path d="M150.305 140C150.305 137.791 152.096 136 154.305 136H277.902C280.112 136 281.902 137.791 281.902 140V363.305H150.305V140Z" fill="#424242"/>
<path d="M281.902 231.707H409.5C411.709 231.707 413.5 233.498 413.5 235.707V359.305C413.5 361.514 411.709 363.305 409.5 363.305H281.902V231.707Z" fill="#505050"/>
</svg>
